<?xml version="1.0" encoding="UTF-8" standalone="no"?>
<!-- Created with Inkscape (http://www.inkscape.org/) -->

<svg
   xmlns:dc="http://purl.org/dc/elements/1.1/"
   xmlns:cc="http://creativecommons.org/ns#"
   xmlns:rdf="http://www.w3.org/1999/02/22-rdf-syntax-ns#"
   xmlns:svg="http://www.w3.org/2000/svg"
   xmlns="http://www.w3.org/2000/svg"
   xmlns:sodipodi="http://sodipodi.sourceforge.net/DTD/sodipodi-0.dtd"
   xmlns:inkscape="http://www.inkscape.org/namespaces/inkscape"
   width="152"
   height="152"
   viewBox="0 0 40.216666 40.216668"
   version="1.1"
   id="svg433"
   inkscape:version="0.92.4 (5da689c313, 2019-01-14)"
   sodipodi:docname="logo.svg">
  <title
     id="title84">ktupad logo</title>
  <defs
     id="defs427" />
  <sodipodi:namedview
     id="base"
     pagecolor="#ffffff"
     bordercolor="#666666"
     borderopacity="1.0"
     inkscape:pageopacity="0.0"
     inkscape:pageshadow="2"
     inkscape:zoom="1.4"
     inkscape:cx="-11.142865"
     inkscape:cy="80.084126"
     inkscape:document-units="mm"
     inkscape:current-layer="layer1"
     showgrid="false"
     inkscape:window-width="1366"
     inkscape:window-height="705"
     inkscape:window-x="-8"
     inkscape:window-y="-8"
     inkscape:window-maximized="1"
     showguides="true"
     inkscape:guide-bbox="true"
     units="px">
    <sodipodi:guide
       position="40.846379,34.675286"
       orientation="0,1"
       id="guide133"
       inkscape:locked="false" />
    <sodipodi:guide
       position="39.522135,18.898809"
       orientation="0,1"
       id="guide135"
       inkscape:locked="false" />
    <sodipodi:guide
       position="24.025898,33.113628"
       orientation="1,0"
       id="guide137"
       inkscape:locked="false" />
    <sodipodi:guide
       position="39.873272,19.878171"
       orientation="1,0"
       id="guide139"
       inkscape:locked="false" />
  </sodipodi:namedview>
  <metadata
     id="metadata430">
    <rdf:RDF>
      <cc:Work
         rdf:about="">
        <dc:format>image/svg+xml</dc:format>
        <dc:type
           rdf:resource="http://purl.org/dc/dcmitype/StillImage" />
        <dc:title>ktupad logo</dc:title>
        <dc:creator>
          <cc:Agent>
            <dc:title>wawan sismadi</dc:title>
          </cc:Agent>
        </dc:creator>
      </cc:Work>
    </rdf:RDF>
  </metadata>
  <g
     inkscape:label="Layer 1"
     inkscape:groupmode="layer"
     id="layer1"
     transform="translate(0,-256.78333)">
    <rect
       style="fill:#355664;fill-opacity:0;fill-rule:evenodd;stroke-width:0.26458332"
       id="rect994"
       width="34.745037"
       height="44.63401"
       x="-23.786989"
       y="301.00906"
       ry="0.76848757" />
    <rect
       style="opacity:1;vector-effect:none;fill:#774338;fill-opacity:0;fill-rule:evenodd;stroke-width:0.26458332;stroke-linecap:butt;stroke-linejoin:miter;stroke-miterlimit:4;stroke-dasharray:none;stroke-dashoffset:0;stroke-opacity:1"
       id="rect1000"
       width="32.339611"
       height="44.099472"
       x="-51.31575"
       y="246.48605"
       ry="0.76848757" />
    <rect
       style="opacity:1;vector-effect:none;fill:#774338;fill-opacity:0;fill-rule:evenodd;stroke-width:0.26458332;stroke-linecap:butt;stroke-linejoin:miter;stroke-miterlimit:4;stroke-dasharray:none;stroke-dashoffset:0;stroke-opacity:1"
       id="rect1011"
       width="26.459681"
       height="35.089634"
       x="-44.366741"
       y="243.01155"
       ry="0.76848757" />
    <rect
       style="opacity:1;vector-effect:none;fill:#774338;fill-opacity:0;fill-rule:evenodd;stroke-width:0.26458332;stroke-linecap:butt;stroke-linejoin:miter;stroke-miterlimit:4;stroke-dasharray:none;stroke-dashoffset:0;stroke-opacity:1"
       id="rect1013"
       width="29.132378"
       height="31.080593"
       x="-67.351921"
       y="247.0206"
       ry="0.76848757" />
    <g
       id="g1460"
       transform="matrix(1.5226866,0,0,1.5226862,-25.359267,237.89098)"
       inkscape:export-xdpi="96"
       inkscape:export-ydpi="96"
       inkscape:export-filename="C:\workshop\ktupad\root\ninja\pwa\icons\icon-512x512.png">
      <path
         id="path843"
         d="m 42.994797,25.613086 c 0,7.254188 -5.880487,13.134678 -13.134679,13.134678 -7.254192,0 -13.13468,-5.88049 -13.13468,-13.134678 0,-7.253927 5.880488,-13.13468 13.13468,-13.13468 7.254192,0 13.134679,5.880753 13.134679,13.13468 z m 0,0"
         style="fill:#414952;stroke-width:0.0682321"
         inkscape:connector-curvature="0" />
      <path
         id="path845"
         d="m 29.860118,12.478406 c -0.0091,0 -0.01786,2.58e-4 -0.02692,2.58e-4 v 26.26883 c 0.0091,0 0.01786,2.6e-4 0.02692,2.6e-4 7.254192,0 13.134679,-5.88049 13.134679,-13.134686 0,-7.253917 -5.880487,-13.13467 -13.134679,-13.13467 z m 0,0"
         style="fill:#23272b;stroke-width:0.0682321"
         inkscape:connector-curvature="0" />
      <g
         transform="matrix(0.06823211,0,0,0.06823211,12.392699,8.4185868)"
         id="g867">
        <path
           d="m 410.33203,252 c 0,-33.6875 -69.09766,-61 -154.33203,-61 -85.23438,0 -154.33203,27.3125 -154.33203,61 0,33.6875 69.09765,61 154.33203,61 85.23437,0 154.33203,-27.3125 154.33203,-61 z m 0,0"
           id="path847"
           inkscape:connector-curvature="0"
           style="fill:#ffffff" />
        <path
           d="m 256,191 c -0.13281,0 -0.26172,0.004 -0.39453,0.004 v 121.99218 c 0.13281,0 0.26172,0.004 0.39453,0.004 85.23437,0 154.33203,-27.3125 154.33203,-61 0,-33.6875 -69.09766,-61 -154.33203,-61 z m 0,0"
           id="path849"
           inkscape:connector-curvature="0"
           style="fill:#dce1eb" />
        <path
           d="m 202.58203,255.25 c 0,15.05078 -12.19922,27.25 -27.25,27.25 -15.04687,0 -27.25,-12.19922 -27.25,-27.25 0,-15.05078 12.20313,-27.25 27.25,-27.25 15.05078,0 27.25,12.19922 27.25,27.25 z m 0,0"
           id="path851"
           inkscape:connector-curvature="0"
           style="fill:#414952" />
        <path
           d="m 363.91797,255.25 c 0,15.05078 -12.20313,27.25 -27.25,27.25 -15.05078,0 -27.25,-12.19922 -27.25,-27.25 0,-15.05078 12.19922,-27.25 27.25,-27.25 15.04687,0 27.25,12.19922 27.25,27.25 z m 0,0"
           id="path853"
           inkscape:connector-curvature="0"
           style="fill:#23272b" />
      </g>
    </g>
  </g>
</svg>
